<?xml version="1.0" standalone="no"?>
<!DOCTYPE svg PUBLIC "-//W3C//DTD SVG 20010904//EN"
 "http://www.w3.org/TR/2001/REC-SVG-20010904/DTD/svg10.dtd">
<svg version="1.0" xmlns="http://www.w3.org/2000/svg"
 width="512.000000pt" height="512.000000pt" viewBox="0 0 512.000000 512.000000"
 preserveAspectRatio="xMidYMid meet">

<g transform="translate(0.000000,512.000000) scale(0.100000,-0.100000)"
fill="#000000" stroke="none">
<path d="M1370 3829 c-202 -26 -373 -201 -400 -409 -12 -98 -12 -1621 0 -1720
27 -212 198 -382 410 -410 44 -5 465 -10 1011 -10 l936 0 55 78 c31 42 71 101
89 130 32 52 50 71 28 30 -11 -21 -113 -172 -148 -219 -13 -18 -7 -19 170 -19
202 0 289 13 375 55 113 55 206 169 240 292 18 64 19 119 19 943 0 827 -1 878
-19 930 -51 152 -153 257 -302 312 -54 19 -83 22 -327 26 l-269 4 84 -104 c79
-97 165 -224 202 -295 28 -55 10 -37 -24 25 -52 91 -124 193 -201 286 l-72 86
-896 -1 c-493 -1 -925 -5 -961 -10z m1263 -394 c56 -29 1029 -759 1045 -784
24 -36 23 -147 -1 -183 -18 -26 -988 -754 -1044 -783 -36 -19 -110 -19 -146 0
-55 28 -1026 758 -1044 783 -25 37 -25 147 0 184 18 26 988 754 1044 783 36
19 110 19 146 0z m976 -170 c0 -5 -6 1 -14 15 -8 14 -14 30 -14 35 0 6 6 -1
14 -15 8 -14 14 -29 14 -35z m21 -50 c0 -5 -5 -3 -10 5 -5 8 -10 20 -10 25 0
6 5 3 10 -5 5 -8 10 -19 10 -25z m20 -50 c0 -5 -5 -3 -10 5 -5 8 -10 20 -10
25 0 6 5 3 10 -5 5 -8 10 -19 10 -25z m37 -127 c-3 -8 -6 -5 -6 6 -1 11 2 17
5 13 3 -3 4 -12 1 -19z m31 -113 c0 -11 -6 3 -14 30 -7 28 -13 55 -13 60 2 17
27 -69 27 -90z m9 -57 c-3 -7 -5 -2 -5 12 0 14 2 19 5 13 2 -7 2 -19 0 -25z
m10 -55 c-3 -10 -5 -4 -5 12 0 17 2 24 5 18 2 -7 2 -21 0 -30z m10 -70 c-3
-10 -5 -2 -5 17 0 19 2 27 5 18 2 -10 2 -26 0 -35z m10 -110 c-2 -16 -4 -3 -4
27 0 30 2 43 4 28 2 -16 2 -40 0 -55z m10 -160 c-2 -16 -4 -3 -4 27 0 30 2 43
4 28 2 -16 2 -40 0 -55z m-10 -150 c-2 -16 -4 -5 -4 22 0 28 2 40 4 28 2 -13
2 -35 0 -50z m-10 -90 c-3 -10 -5 -2 -5 17 0 19 2 27 5 18 2 -10 2 -26 0 -35z
m-12 -88 c-4 -25 -9 -44 -12 -41 -2 2 -1 25 2 51 4 25 9 44 12 41 2 -2 1 -25
-2 -51z m-18 -77 c-3 -8 -6 -5 -6 6 -1 11 2 17 5 13 3 -3 4 -12 1 -19z m-10
-40 c-3 -8 -6 -5 -6 6 -1 11 2 17 5 13 3 -3 4 -12 1 -19z m-10 -40 c-3 -8 -6
-5 -6 6 -1 11 2 17 5 13 3 -3 4 -12 1 -19z m-32 -108 c-9 -28 -19 -50 -21 -48
-2 2 4 27 13 56 9 28 19 50 21 47 2 -2 -4 -27 -13 -55z m-41 -109 c-9 -23 -18
-40 -20 -38 -2 2 4 22 13 45 9 23 18 40 20 38 2 -2 -4 -22 -13 -45z m-63 -140
c-23 -45 -43 -81 -46 -81 -3 0 14 38 37 85 23 46 44 83 46 81 2 -2 -15 -40
-37 -85z"/>
<path d="M2450 3026 c-31 -6 -82 -25 -115 -41 -69 -35 -184 -144 -163 -155 7
-4 49 -10 93 -13 196 -15 398 -113 525 -254 54 -60 150 -208 150 -230 0 -46
44 32 69 122 15 55 14 169 -3 230 -65 246 -308 395 -556 341z"/>
<path d="M2085 2625 c-4 -26 -5 -74 -1 -106 34 -326 381 -518 674 -373 84 41
83 33 19 159 -58 113 -183 239 -287 288 -102 49 -176 67 -297 74 l-101 6 -7
-48z"/>
</g>
</svg>
