<?xml version="1.0" standalone="no"?>
<!DOCTYPE svg PUBLIC "-//W3C//DTD SVG 20010904//EN"
 "http://www.w3.org/TR/2001/REC-SVG-20010904/DTD/svg10.dtd">
<svg version="1.0" xmlns="http://www.w3.org/2000/svg"
 width="512.000000pt" height="512.000000pt" viewBox="0 0 512.000000 512.000000"
 preserveAspectRatio="xMidYMid meet">

<g transform="translate(0.000000,512.000000) scale(0.100000,-0.100000)"
fill="#000000" stroke="none">
<path d="M490 4191 c-109 -34 -205 -117 -253 -219 l-32 -67 -3 -1047 -2 -1048
2395 0 2395 0 0 235 0 235 -1197 2 -1198 3 0 240 0 240 1198 3 1197 2 0 235 0
235 -1197 2 -1198 3 0 240 0 240 1198 3 1197 2 0 69 c0 165 -88 305 -236 373
l-49 23 -2095 2 c-1152 1 -2106 -2 -2120 -6z m264 -458 c1 -2 38 -8 82 -14 43
-6 81 -13 83 -16 3 -2 -23 -32 -58 -67 l-62 -63 14 -84 c8 -46 14 -85 12 -87
-1 -1 -35 16 -76 39 l-74 42 -66 -37 c-37 -20 -71 -36 -76 -36 -6 0 -5 32 4
81 l14 80 -40 48 c-22 26 -47 54 -56 61 -20 16 -19 30 2 30 9 0 45 5 79 11
l63 11 37 80 38 80 39 -79 c22 -43 40 -79 41 -80z m720 0 c1 -2 38 -8 82 -14
43 -6 81 -13 83 -16 3 -2 -23 -32 -58 -67 l-62 -63 14 -84 c8 -46 14 -85 12
-87 -1 -1 -35 16 -76 39 l-74 42 -66 -37 c-37 -20 -71 -36 -76 -36 -6 0 -5 32
4 81 l14 80 -40 48 c-22 26 -47 54 -56 61 -20 16 -19 30 2 30 9 0 45 5 79 11
l63 11 37 80 38 80 39 -79 c22 -43 40 -79 41 -80z m720 0 c1 -2 38 -8 82 -14
43 -6 81 -13 83 -16 3 -2 -23 -32 -58 -67 l-62 -63 14 -84 c8 -46 14 -85 12
-87 -1 -1 -35 16 -76 39 l-74 42 -66 -37 c-37 -20 -71 -36 -76 -36 -6 0 -5 32
4 81 l14 80 -40 48 c-22 26 -47 54 -56 61 -20 16 -19 30 2 30 9 0 45 5 79 11
l63 11 37 80 38 80 39 -79 c22 -43 40 -79 41 -80z m-1440 -800 c1 -2 38 -8 82
-14 43 -6 81 -13 83 -16 3 -2 -23 -32 -58 -67 l-62 -63 14 -84 c8 -46 14 -85
12 -87 -1 -1 -35 16 -76 39 l-74 42 -68 -38 c-38 -20 -71 -34 -74 -31 -4 3 -1
40 5 82 l12 76 -40 48 c-22 26 -46 53 -55 60 -20 16 -19 30 2 30 9 0 45 5 79
11 l63 11 37 80 38 80 39 -79 c22 -43 40 -79 41 -80z m720 0 c1 -2 38 -8 82
-14 43 -6 81 -13 83 -16 3 -2 -23 -32 -58 -67 l-62 -63 14 -84 c8 -46 14 -85
12 -87 -1 -1 -35 16 -76 39 l-74 42 -66 -37 c-37 -20 -71 -36 -76 -36 -6 0 -5
32 4 81 l14 80 -40 48 c-22 26 -47 54 -56 61 -20 16 -19 30 2 30 9 0 45 5 79
11 l63 11 37 80 38 80 39 -79 c22 -43 40 -79 41 -80z m720 0 c1 -2 38 -8 82
-14 43 -6 81 -13 83 -16 3 -2 -23 -32 -58 -67 l-62 -63 14 -84 c8 -46 14 -85
12 -87 -1 -1 -35 16 -76 39 l-74 42 -66 -37 c-37 -20 -71 -36 -76 -36 -6 0 -5
32 4 81 l14 80 -40 48 c-22 26 -47 54 -56 61 -20 16 -19 30 2 30 9 0 45 5 79
11 l63 11 37 80 38 80 39 -79 c22 -43 40 -79 41 -80z"/>
<path d="M202 1232 c3 -71 10 -99 35 -154 40 -85 105 -151 191 -191 l67 -32
2100 0 2100 0 68 32 c81 39 150 107 192 189 24 49 30 74 33 152 l4 92 -2397 0
-2397 0 4 -88z"/>
</g>
</svg>
